# xmcd
# Copyright (C) 1995-1998 Ti Kan
#
# Track frame offsets:
#       150
#       14019
#       31859
#       40093
#       58912
#       81660
#
# Disc length: 1221 seconds
#
# Revision: 0
# Processed by: cddbd v1.5.2PL0 Copyright (c) Steve Scherf et al.
# Submitted via: CD-Import v1.0
#
DISCID=4c04c306
DTITLE=Rocket Juice And The Moon - Rocket Juice And The Moon
DYEAR=12
DGENRE=
TTITLE0=1-2-3-4-5-6
TTITLE1=Follow-Fashion
TTITLE2=Forward Sweep
TTITLE3=Hey, Shooter
TTITLE4=Lolo
TTITLE5=Night Watch
EXTD=
EXTT0=
EXTT1=
EXTT2=
EXTT3=
EXTT4=
EXTT5=
PLAYORDER=
